<?xml version="1.0" encoding="UTF-8" standalone="no"?>
<svg
   xmlns:dc="http://purl.org/dc/elements/1.1/"
   xmlns:cc="http://creativecommons.org/ns#"
   xmlns:rdf="http://www.w3.org/1999/02/22-rdf-syntax-ns#"
   xmlns:svg="http://www.w3.org/2000/svg"
   xmlns="http://www.w3.org/2000/svg"
   xmlns:sodipodi="http://sodipodi.sourceforge.net/DTD/sodipodi-0.dtd"
   xmlns:inkscape="http://www.inkscape.org/namespaces/inkscape"
   inkscape:version="1.0 (4035a4f, 2020-05-01)"
   height="256"
   width="256"
   sodipodi:docname="Binance-Coin-BNB-Icon-Dark-Crey-256x256.svg"
   id="svg882"
   version="1.1"
   viewBox="0 0 256 256">
  <metadata
     id="metadata888">
    <rdf:RDF>
      <cc:Work
         rdf:about="">
        <dc:format>image/svg+xml</dc:format>
        <dc:type
           rdf:resource="http://purl.org/dc/dcmitype/StillImage" />
        <dc:title></dc:title>
      </cc:Work>
    </rdf:RDF>
  </metadata>
  <defs
     id="defs886" />
  <sodipodi:namedview
     inkscape:current-layer="svg882"
     inkscape:window-maximized="1"
     inkscape:window-y="0"
     inkscape:window-x="0"
     inkscape:cy="139.15942"
     inkscape:cx="77.78542"
     inkscape:zoom="1.1582069"
     fit-margin-bottom="0"
     fit-margin-right="0"
     fit-margin-left="0"
     fit-margin-top="0"
     showgrid="false"
     id="namedview884"
     inkscape:window-height="878"
     inkscape:window-width="1440"
     inkscape:pageshadow="2"
     inkscape:pageopacity="0"
     guidetolerance="10"
     gridtolerance="10"
     objecttolerance="10"
     borderopacity="1"
     bordercolor="#666666"
     pagecolor="#ffffff" />
  <g
     transform="scale(28.444444)"
     id="g880"
     data-name="Layer 2">
    <circle
       id="circle872"
       fill="#323232"
       r="4.5"
       cy="4.5"
       cx="4.5" />
    <g
       id="g878"
       fill="#f3ba2f"
       data-name="surface1">
      <path
         id="path874"
         d="M 3.238,3.981 4.5,2.72 5.763,3.983 6.497,3.248 4.5,1.25 2.503,3.247 Z M 1.984,3.765 2.719,4.5 1.985,5.234 1.25,4.5 Z M 3.239,5.02 4.5,6.28 5.763,5.017 6.498,5.751 4.5,7.75 2.503,5.753 Z M 7.75,4.5 7.016,5.235 6.28,4.5 7.015,3.765 Z" />
      <path
         id="path876"
         d="M 5.245,4.5 4.5,3.754 3.95,4.305 3.886,4.368 3.754,4.5 3.755,4.501 4.5,5.246 Z" />
    </g>
  </g>
</svg>
