<?xml version="1.0" encoding="UTF-8"?>
<svg xmlns="http://www.w3.org/2000/svg" xmlns:xlink="http://www.w3.org/1999/xlink" width="283.46pt" height="283.46pt" viewBox="0 0 283.46 283.46" version="1.1">
<g id="surface1">
<path style=" stroke:none;fill-rule:nonzero;fill:rgb(13.299561%,12.199402%,12.5%);fill-opacity:1;" d="M 283.464844 283.460938 L 0 283.460938 L 0 -0.00390625 L 283.464844 -0.00390625 L 283.464844 283.460938 "/>
<path style=" stroke:none;fill-rule:nonzero;fill:rgb(100%,100%,100%);fill-opacity:1;" d="M 235.105469 174.085938 L 235.109375 174.101563 L 235.109375 174.085938 Z M 235.105469 174.085938 "/>
<path style=" stroke:none;fill-rule:nonzero;fill:rgb(100%,100%,100%);fill-opacity:1;" d="M 167.074219 84.335938 C 168.246094 85.9375 170.472656 86.671875 172.488281 86.109375 C 172.992188 85.96875 173.46875 85.75 173.910156 85.460938 C 176.105469 83.988281 176.648438 81.09375 175.117188 79.015625 C 174.210938 77.773438 172.6875 77.035156 171.039063 77.035156 C 170.03125 77.035156 169.078125 77.316406 168.277344 77.84375 C 166.0625 79.3125 165.523438 82.226563 167.074219 84.335938 "/>
<path style=" stroke:none;fill-rule:nonzero;fill:rgb(100%,100%,100%);fill-opacity:1;" d="M 154.539063 72.714844 C 154.621094 74.160156 155.289063 75.476563 156.410156 76.40625 C 157.886719 77.6875 159.941406 78.128906 161.839844 77.601563 C 162.859375 77.3125 163.773438 76.761719 164.472656 76.015625 C 165.492188 74.941406 166.007813 73.558594 165.925781 72.117188 C 165.84375 70.675781 165.175781 69.347656 164.039063 68.378906 C 163.042969 67.53125 161.707031 67.066406 160.277344 67.066406 C 158.601563 67.066406 157.046875 67.699219 156.003906 68.8125 C 154.976563 69.878906 154.460938 71.261719 154.539063 72.714844 "/>
<path style=" stroke:none;fill-rule:nonzero;fill:rgb(100%,100%,100%);fill-opacity:1;" d="M 142.015625 70.039063 C 143.003906 70.558594 144.117188 70.832031 145.230469 70.832031 C 145.863281 70.832031 146.496094 70.746094 147.113281 70.574219 C 148.800781 70.101563 150.191406 69.042969 151.023438 67.589844 C 151.890625 66.117188 152.097656 64.421875 151.609375 62.808594 C 151.121094 61.1875 150 59.851563 148.449219 59.042969 C 147.539063 58.570313 146.476563 58.316406 145.378906 58.316406 C 142.894531 58.316406 140.554688 59.566406 139.417969 61.503906 C 137.675781 64.53125 138.835938 68.363281 142.015625 70.039063 "/>
<path style=" stroke:none;fill-rule:nonzero;fill:rgb(100%,100%,100%);fill-opacity:1;" d="M 123.753906 66.367188 C 125.105469 66.722656 126.613281 66.71875 128.003906 66.332031 C 130.570313 65.609375 132.546875 63.730469 133.277344 61.304688 C 133.839844 59.425781 133.597656 57.445313 132.597656 55.726563 C 131.59375 54.015625 129.949219 52.773438 127.964844 52.230469 C 127.335938 52.0625 126.671875 51.976563 126 51.976563 C 122.539063 51.976563 119.335938 54.210938 118.386719 57.289063 C 117.25 61.15625 119.652344 65.234375 123.753906 66.367188 "/>
<path style=" stroke:none;fill-rule:nonzero;fill:rgb(100%,100%,100%);fill-opacity:1;" d="M 101.664063 66.671875 C 102.703125 66.726563 103.710938 66.605469 104.691406 66.332031 C 108.359375 65.304688 110.953125 62.1875 111.144531 58.574219 C 111.273438 56.273438 110.445313 54.070313 108.808594 52.359375 C 107.191406 50.671875 104.992188 49.683594 102.609375 49.578125 L 102.164063 49.566406 C 97.433594 49.566406 93.371094 53.21875 93.109375 57.707031 C 92.871094 62.414063 96.710938 66.441406 101.664063 66.671875 "/>
<path style=" stroke:none;fill-rule:nonzero;fill:rgb(100%,100%,100%);fill-opacity:1;" d="M 64.253906 64.492188 C 65.148438 69.277344 69.523438 72.75 74.65625 72.75 C 75.269531 72.75 75.886719 72.699219 76.496094 72.597656 C 76.882813 72.535156 77.265625 72.449219 77.636719 72.347656 C 82.785156 70.90625 85.972656 66.03125 85.042969 61.007813 C 84.128906 56.238281 79.753906 52.765625 74.644531 52.765625 C 74.035156 52.765625 73.417969 52.816406 72.808594 52.917969 C 67.085938 53.9375 63.242188 59.128906 64.253906 64.492188 "/>
<path style=" stroke:none;fill-rule:nonzero;fill:rgb(100%,100%,100%);fill-opacity:1;" d="M 168.878906 102.085938 C 169.894531 101.015625 170.410156 99.628906 170.324219 98.183594 C 170.242188 96.738281 169.570313 95.421875 168.4375 94.46875 C 167.429688 93.601563 166.089844 93.128906 164.652344 93.128906 C 162.992188 93.128906 161.449219 93.757813 160.429688 94.851563 C 159.402344 95.921875 158.886719 97.304688 158.960938 98.753906 C 159.03125 100.1875 159.691406 101.511719 160.820313 102.484375 C 161.878906 103.375 163.238281 103.871094 164.640625 103.871094 C 165.191406 103.871094 165.738281 103.796875 166.273438 103.644531 C 167.277344 103.367188 168.175781 102.828125 168.878906 102.085938 "/>
<path style=" stroke:none;fill-rule:nonzero;fill:rgb(100%,100%,100%);fill-opacity:1;" d="M 156.015625 88.867188 C 155.515625 87.25 154.382813 85.90625 152.832031 85.089844 C 151.910156 84.613281 150.847656 84.359375 149.753906 84.359375 C 147.265625 84.359375 144.984375 85.589844 143.796875 87.574219 C 142.070313 90.621094 143.253906 94.457031 146.441406 96.109375 C 147.429688 96.625 148.53125 96.894531 149.632813 96.894531 C 150.261719 96.894531 150.894531 96.808594 151.507813 96.636719 C 153.203125 96.160156 154.589844 95.097656 155.410156 93.644531 C 156.285156 92.171875 156.492188 90.484375 156.015625 88.867188 "/>
<path style=" stroke:none;fill-rule:nonzero;fill:rgb(100%,100%,100%);fill-opacity:1;" d="M 137.683594 87.34375 C 138.234375 85.472656 137.988281 83.488281 136.984375 81.765625 C 135.976563 80.0625 134.332031 78.828125 132.359375 78.296875 C 131.71875 78.121094 131.054688 78.035156 130.378906 78.035156 C 126.914063 78.035156 123.726563 80.261719 122.804688 83.332031 C 121.632813 87.214844 124.015625 91.28125 128.113281 92.398438 C 129.515625 92.769531 131.023438 92.765625 132.421875 92.375 C 134.96875 91.660156 136.933594 89.777344 137.683594 87.34375 "/>
<path style=" stroke:none;fill-rule:nonzero;fill:rgb(100%,100%,100%);fill-opacity:1;" d="M 115.542969 84.628906 C 115.671875 82.339844 114.847656 80.140625 113.222656 78.4375 C 111.605469 76.746094 109.402344 75.753906 107.011719 75.648438 C 106.851563 75.640625 106.695313 75.636719 106.546875 75.636719 C 101.902344 75.636719 97.769531 79.347656 97.523438 83.742188 C 97.269531 88.449219 101.105469 92.476563 106.074219 92.722656 C 106.246094 92.734375 106.421875 92.738281 106.589844 92.738281 C 107.441406 92.738281 108.285156 92.621094 109.105469 92.390625 C 112.746094 91.371094 115.335938 88.25 115.542969 84.628906 "/>
<path style=" stroke:none;fill-rule:nonzero;fill:rgb(100%,100%,100%);fill-opacity:1;" d="M 79.015625 78.808594 C 78.410156 78.808594 77.796875 78.859375 77.195313 78.960938 C 71.484375 79.898438 67.648438 85.097656 68.640625 90.546875 C 69.132813 93.183594 70.679688 95.480469 72.992188 97.007813 C 75.285156 98.527344 78.113281 99.117188 80.871094 98.648438 C 81.28125 98.578125 81.667969 98.492188 82.054688 98.386719 C 87.175781 96.949219 90.351563 92.082031 89.433594 87.058594 C 88.515625 82.285156 84.136719 78.808594 79.015625 78.808594 "/>
<path style=" stroke:none;fill-rule:nonzero;fill:rgb(100%,100%,100%);fill-opacity:1;" d="M 37.464844 105.578125 C 39.402344 109.910156 43.847656 112.710938 48.78125 112.710938 C 49.949219 112.710938 51.113281 112.550781 52.238281 112.234375 C 52.707031 112.105469 53.175781 111.945313 53.640625 111.757813 C 56.695313 110.519531 59.054688 108.238281 60.273438 105.335938 C 61.5 102.453125 61.460938 99.289063 60.164063 96.429688 C 58.226563 92.105469 53.773438 89.3125 48.8125 89.3125 C 47.15625 89.3125 45.539063 89.628906 43.992188 90.25 C 37.746094 92.773438 34.816406 99.648438 37.464844 105.578125 "/>
<path style=" stroke:none;fill-rule:nonzero;fill:rgb(100%,100%,100%);fill-opacity:1;" d="M 165.164063 113.871094 C 164.238281 113.382813 163.167969 113.128906 162.058594 113.128906 C 159.578125 113.128906 157.261719 114.375 156.152344 116.304688 C 154.382813 119.34375 155.539063 123.171875 158.730469 124.847656 C 160.292969 125.683594 162.121094 125.878906 163.824219 125.398438 C 165.5 124.929688 166.90625 123.859375 167.789063 122.386719 C 169.527344 119.367188 168.355469 115.539063 165.164063 113.871094 "/>
<path style=" stroke:none;fill-rule:nonzero;fill:rgb(100%,100%,100%);fill-opacity:1;" d="M 135.78125 117.695313 C 136.78125 119.398438 138.425781 120.636719 140.40625 121.179688 C 141.09375 121.359375 141.8125 121.453125 142.53125 121.453125 C 143.277344 121.453125 144.019531 121.351563 144.730469 121.152344 C 147.296875 120.4375 149.261719 118.554688 149.988281 116.121094 C 151.136719 112.226563 148.757813 108.160156 144.683594 107.066406 C 144.035156 106.890625 143.363281 106.800781 142.683594 106.800781 C 139.238281 106.800781 136.054688 109.023438 135.113281 112.085938 C 134.539063 113.972656 134.777344 115.96875 135.78125 117.695313 "/>
<path style=" stroke:none;fill-rule:nonzero;fill:rgb(100%,100%,100%);fill-opacity:1;" d="M 127.878906 113.386719 C 128.121094 108.675781 124.277344 104.640625 119.304688 104.402344 L 118.878906 104.390625 C 114.214844 104.390625 110.078125 108.105469 109.84375 112.5 C 109.578125 117.210938 113.410156 121.246094 118.386719 121.503906 L 118.828125 121.511719 C 119.707031 121.511719 120.574219 121.394531 121.402344 121.160156 C 125.058594 120.136719 127.660156 117.015625 127.878906 113.386719 "/>
<path style=" stroke:none;fill-rule:nonzero;fill:rgb(100%,100%,100%);fill-opacity:1;" d="M 91.363281 127.582031 C 91.96875 127.582031 92.585938 127.527344 93.1875 127.429688 C 93.582031 127.363281 93.964844 127.277344 94.335938 127.171875 C 99.496094 125.730469 102.675781 120.855469 101.734375 115.835938 C 100.832031 111.042969 96.460938 107.5625 91.339844 107.5625 C 90.730469 107.5625 90.113281 107.613281 89.503906 107.71875 C 83.792969 108.679688 79.96875 113.894531 80.976563 119.339844 C 81.878906 124.113281 86.246094 127.582031 91.363281 127.582031 "/>
<path style=" stroke:none;fill-rule:nonzero;fill:rgb(100%,100%,100%);fill-opacity:1;" d="M 72.578125 134.148438 C 73.816406 131.238281 73.789063 128.058594 72.496094 125.199219 C 70.574219 120.953125 65.972656 118.101563 61.046875 118.101563 C 59.402344 118.101563 57.8125 118.410156 56.316406 119.023438 C 53.273438 120.234375 50.921875 122.488281 49.6875 125.375 C 48.441406 128.277344 48.476563 131.46875 49.78125 134.359375 C 51.726563 138.6875 56.179688 141.480469 61.125 141.480469 C 62.300781 141.480469 63.472656 141.320313 64.609375 141 C 65.070313 140.871094 65.515625 140.722656 65.960938 140.539063 C 68.996094 139.320313 71.347656 137.050781 72.578125 134.148438 "/>
<path style=" stroke:none;fill-rule:nonzero;fill:rgb(100%,100%,100%);fill-opacity:1;" d="M 41.5625 143.292969 C 38.84375 139.761719 34.46875 137.648438 29.859375 137.648438 C 28.480469 137.648438 27.109375 137.839844 25.789063 138.210938 C 24.210938 138.652344 22.722656 139.347656 21.367188 140.28125 C 18.257813 142.429688 16.21875 145.605469 15.621094 149.222656 C 15.023438 152.839844 15.9375 156.457031 18.203125 159.40625 C 20.914063 162.945313 25.292969 165.058594 29.917969 165.058594 C 31.292969 165.058594 32.660156 164.871094 33.984375 164.5 C 35.558594 164.0625 37.042969 163.367188 38.390625 162.4375 C 44.824219 157.972656 46.246094 149.386719 41.5625 143.292969 "/>
<path style=" stroke:none;fill-rule:nonzero;fill:rgb(100%,100%,100%);fill-opacity:1;" d="M 196.921875 191.269531 C 196.707031 188.886719 194.550781 187.019531 192.023438 187.019531 C 191.878906 187.019531 191.738281 187.023438 191.597656 187.035156 C 189.507813 187.203125 187.769531 188.632813 187.269531 190.597656 C 187.148438 191.082031 187.109375 191.574219 187.152344 192.09375 C 187.382813 194.457031 189.515625 196.316406 192.015625 196.316406 C 192.15625 196.316406 192.296875 196.308594 192.4375 196.300781 C 193.703125 196.203125 194.910156 195.597656 195.757813 194.644531 C 196.617188 193.683594 197.03125 192.484375 196.921875 191.269531 "/>
<path style=" stroke:none;fill-rule:nonzero;fill:rgb(100%,100%,100%);fill-opacity:1;" d="M 200.367188 186.101563 C 200.121094 187.085938 200.164063 188.109375 200.496094 189.066406 C 201.445313 191.832031 204.726563 193.433594 207.683594 192.523438 C 209.054688 192.101563 210.234375 191.105469 210.929688 189.804688 C 211.621094 188.496094 211.761719 187.003906 211.304688 185.707031 C 210.847656 184.324219 209.84375 183.210938 208.476563 182.558594 C 207.679688 182.167969 206.796875 181.964844 205.925781 181.964844 C 205.328125 181.964844 204.738281 182.058594 204.167969 182.242188 C 202.242188 182.820313 200.832031 184.257813 200.367188 186.101563 "/>
<path style=" stroke:none;fill-rule:nonzero;fill:rgb(100%,100%,100%);fill-opacity:1;" d="M 214.148438 177.523438 C 213.730469 179.144531 214.003906 180.808594 214.914063 182.226563 C 215.828125 183.675781 217.269531 184.691406 218.988281 185.097656 C 219.523438 185.226563 220.074219 185.289063 220.613281 185.289063 L 220.617188 185.289063 C 221.804688 185.289063 222.972656 184.976563 224 184.386719 C 227.023438 182.648438 228.085938 178.609375 226.273438 175.742188 C 225.074219 173.878906 222.886719 172.714844 220.566406 172.714844 C 219.375 172.714844 218.203125 173.023438 217.179688 173.601563 C 215.644531 174.480469 214.5625 175.871094 214.148438 177.523438 "/>
<path style=" stroke:none;fill-rule:nonzero;fill:rgb(100%,100%,100%);fill-opacity:1;" d="M 235.105469 173.023438 C 237.109375 173.023438 239.015625 172.292969 240.46875 170.964844 C 243.40625 168.257813 243.484375 163.398438 240.636719 160.566406 C 239.179688 159.160156 237.207031 158.378906 235.089844 158.378906 C 233.054688 158.378906 231.128906 159.113281 229.660156 160.4375 C 228.640625 161.386719 227.914063 162.605469 227.570313 163.945313 C 226.945313 166.417969 227.675781 168.980469 229.523438 170.792969 C 230.960938 172.195313 232.890625 172.988281 234.957031 173.019531 L 235.105469 174.089844 L 235.105469 173.023438 "/>
<path style=" stroke:none;fill-rule:nonzero;fill:rgb(100%,100%,100%);fill-opacity:1;" d="M 255.566406 151.46875 C 258.226563 147.578125 257 142.144531 252.894531 139.601563 C 251.4375 138.710938 249.746094 138.242188 248.015625 138.242188 C 244.925781 138.242188 242.09375 139.699219 240.429688 142.148438 C 239.871094 142.964844 239.46875 143.855469 239.222656 144.800781 C 238.328125 148.328125 239.878906 152.015625 243.085938 153.980469 C 244.554688 154.886719 246.25 155.363281 247.988281 155.363281 C 248.632813 155.363281 249.285156 155.300781 249.929688 155.171875 C 252.273438 154.6875 254.28125 153.367188 255.566406 151.46875 "/>
<path style=" stroke:none;fill-rule:nonzero;fill:rgb(100%,100%,100%);fill-opacity:1;" d="M 261.128906 112.507813 C 259.96875 112.109375 258.765625 111.90625 257.542969 111.90625 C 253.117188 111.90625 249.117188 114.5625 247.601563 118.511719 C 247.464844 118.859375 247.355469 119.21875 247.257813 119.574219 C 246.003906 124.523438 248.859375 129.574219 253.910156 131.320313 C 255.054688 131.710938 256.253906 131.90625 257.464844 131.90625 C 261.90625 131.90625 265.902344 129.261719 267.414063 125.320313 C 269.347656 120.113281 266.527344 114.359375 261.128906 112.507813 "/>
<path style=" stroke:none;fill-rule:nonzero;fill:rgb(100%,100%,100%);fill-opacity:1;" d="M 174.367188 176.726563 C 174.117188 177.6875 174.160156 178.699219 174.484375 179.644531 C 174.953125 181.015625 175.964844 182.128906 177.324219 182.78125 C 178.132813 183.167969 178.988281 183.363281 179.878906 183.363281 C 180.480469 183.363281 181.082031 183.273438 181.667969 183.089844 C 183.050781 182.667969 184.238281 181.679688 184.933594 180.375 C 185.628906 179.082031 185.765625 177.601563 185.316406 176.320313 C 184.851563 174.945313 183.851563 173.828125 182.488281 173.164063 C 181.675781 172.765625 180.808594 172.5625 179.90625 172.5625 C 179.316406 172.5625 178.726563 172.652344 178.152344 172.828125 C 176.253906 173.425781 174.832031 174.886719 174.367188 176.726563 "/>
<path style=" stroke:none;fill-rule:nonzero;fill:rgb(100%,100%,100%);fill-opacity:1;" d="M 192.988281 175.6875 C 194.679688 176.078125 196.527344 175.820313 198.027344 174.960938 C 201.066406 173.207031 202.097656 169.238281 200.273438 166.296875 C 199.054688 164.429688 196.914063 163.300781 194.566406 163.300781 C 193.363281 163.300781 192.1875 163.613281 191.160156 164.203125 C 189.632813 165.082031 188.566406 166.464844 188.148438 168.101563 C 187.738281 169.730469 188.011719 171.402344 188.929688 172.804688 C 189.835938 174.253906 191.273438 175.273438 192.988281 175.6875 "/>
<path style=" stroke:none;fill-rule:nonzero;fill:rgb(100%,100%,100%);fill-opacity:1;" d="M 209.078125 163.609375 C 211.109375 163.609375 213.027344 162.875 214.46875 161.542969 C 215.878906 160.253906 216.707031 158.382813 216.742188 156.40625 C 216.777344 154.421875 216.015625 152.515625 214.648438 151.175781 C 213.183594 149.738281 211.210938 148.949219 209.097656 148.949219 C 207.074219 148.949219 205.164063 149.679688 203.714844 151.003906 C 202.664063 151.980469 201.925781 153.210938 201.582031 154.554688 C 200.964844 157.003906 201.695313 159.558594 203.546875 161.394531 C 204.980469 162.78125 206.914063 163.574219 208.988281 163.609375 L 209.078125 164.679688 L 209.078125 163.609375 "/>
<path style=" stroke:none;fill-rule:nonzero;fill:rgb(100%,100%,100%);fill-opacity:1;" d="M 229.5625 142.050781 C 230.839844 140.191406 231.265625 137.914063 230.757813 135.644531 C 230.257813 133.386719 228.855469 131.40625 226.914063 130.207031 C 225.453125 129.3125 223.765625 128.835938 222.027344 128.835938 C 218.945313 128.835938 216.105469 130.296875 214.4375 132.738281 C 213.875 133.550781 213.46875 134.445313 213.222656 135.394531 C 212.335938 138.898438 213.890625 142.582031 217.097656 144.566406 C 218.566406 145.472656 220.257813 145.949219 221.984375 145.949219 C 222.625 145.949219 223.269531 145.886719 223.90625 145.757813 C 226.261719 145.273438 228.269531 143.953125 229.5625 142.050781 "/>
<path style=" stroke:none;fill-rule:nonzero;fill:rgb(100%,100%,100%);fill-opacity:1;" d="M 227.929688 121.90625 C 229.066406 122.289063 230.265625 122.488281 231.476563 122.488281 C 235.921875 122.488281 239.925781 119.839844 241.445313 115.902344 C 243.441406 110.742188 240.613281 104.992188 235.136719 103.082031 C 233.972656 102.679688 232.757813 102.476563 231.527344 102.476563 C 229.984375 102.476563 228.480469 102.792969 227.066406 103.425781 C 224.515625 104.558594 222.585938 106.566406 221.628906 109.078125 C 221.484375 109.449219 221.371094 109.816406 221.273438 110.183594 C 220.023438 115.105469 222.886719 120.144531 227.929688 121.90625 "/>
<path style=" stroke:none;fill-rule:nonzero;fill:rgb(100%,100%,100%);fill-opacity:1;" d="M 234.007813 93.179688 C 234.511719 93.238281 235.011719 93.265625 235.507813 93.265625 C 241.71875 93.265625 246.976563 88.847656 247.738281 82.984375 C 248.558594 76.59375 243.742188 70.746094 237.003906 69.957031 C 236.496094 69.898438 235.984375 69.871094 235.484375 69.871094 C 229.78125 69.871094 224.871094 73.527344 223.535156 78.765625 C 223.421875 79.214844 223.335938 79.683594 223.273438 80.15625 C 222.875 83.28125 223.78125 86.359375 225.820313 88.816406 C 227.839844 91.261719 230.746094 92.808594 234.007813 93.179688 "/>
<path style=" stroke:none;fill-rule:nonzero;fill:rgb(100%,100%,100%);fill-opacity:1;" d="M 168.554688 166.773438 C 168.976563 165.128906 168.726563 163.421875 167.863281 162.082031 C 166.667969 160.199219 164.488281 159.035156 162.171875 159.035156 C 160.976563 159.035156 159.800781 159.34375 158.773438 159.933594 C 157.222656 160.804688 156.144531 162.1875 155.726563 163.835938 C 155.316406 165.445313 155.589844 167.140625 156.492188 168.597656 C 157.699219 170.472656 159.824219 171.601563 162.171875 171.601563 C 163.371094 171.601563 164.550781 171.289063 165.582031 170.703125 C 167.039063 169.871094 168.121094 168.4375 168.554688 166.773438 "/>
<path style=" stroke:none;fill-rule:nonzero;fill:rgb(100%,100%,100%);fill-opacity:1;" d="M 176.683594 159.328125 C 178.703125 159.328125 180.601563 158.601563 182.035156 157.277344 C 184.996094 154.578125 185.089844 149.738281 182.234375 146.914063 C 180.796875 145.496094 178.859375 144.691406 176.777344 144.652344 L 176.773438 144.652344 C 174.652344 144.652344 172.742188 145.382813 171.285156 146.710938 C 170.238281 147.691406 169.492188 148.929688 169.148438 150.277344 C 168.523438 152.738281 169.257813 155.296875 171.113281 157.117188 C 172.585938 158.539063 174.566406 159.328125 176.683594 159.328125 "/>
<path style=" stroke:none;fill-rule:nonzero;fill:rgb(100%,100%,100%);fill-opacity:1;" d="M 184.671875 140.316406 C 186.125 141.210938 187.816406 141.683594 189.554688 141.683594 C 192.644531 141.683594 195.484375 140.21875 197.160156 137.769531 C 199.769531 133.941406 198.523438 128.417969 194.496094 125.945313 C 193.03125 125.042969 191.339844 124.566406 189.597656 124.566406 C 186.519531 124.566406 183.679688 126.023438 182.003906 128.464844 C 181.445313 129.285156 181.039063 130.179688 180.804688 131.113281 C 179.914063 134.625 181.464844 138.324219 184.671875 140.316406 "/>
<path style=" stroke:none;fill-rule:nonzero;fill:rgb(100%,100%,100%);fill-opacity:1;" d="M 202.679688 98.816406 C 201.535156 98.425781 200.335938 98.222656 199.117188 98.222656 C 194.695313 98.222656 190.703125 100.867188 189.1875 104.804688 C 189.050781 105.15625 188.941406 105.511719 188.851563 105.871094 C 187.585938 110.835938 190.449219 115.882813 195.503906 117.621094 C 196.660156 118.019531 197.867188 118.21875 199.089844 118.21875 C 203.523438 118.21875 207.519531 115.574219 209.03125 111.632813 C 211.003906 106.460938 208.15625 100.710938 202.679688 98.816406 "/>
<path style=" stroke:none;fill-rule:nonzero;fill:rgb(100%,100%,100%);fill-opacity:1;" d="M 204.5625 65.683594 C 204.0625 65.625 203.5625 65.597656 203.070313 65.597656 C 197.351563 65.597656 192.425781 69.277344 191.085938 74.546875 C 190.972656 74.984375 190.886719 75.425781 190.832031 75.878906 C 190.425781 78.988281 191.324219 82.054688 193.359375 84.511719 C 195.394531 86.984375 198.3125 88.550781 201.574219 88.921875 C 202.050781 88.976563 202.53125 89.003906 203.007813 89.003906 C 209.195313 89.003906 214.59375 84.488281 215.300781 78.722656 C 215.714844 75.613281 214.832031 72.558594 212.816406 70.101563 C 210.789063 67.628906 207.859375 66.058594 204.5625 65.683594 "/>
<path style=" stroke:none;fill-rule:nonzero;fill:rgb(100%,100%,100%);fill-opacity:1;" d="M 198.972656 54.546875 C 199.484375 54.546875 200 54.519531 200.515625 54.46875 C 206.585938 53.847656 211.621094 49.664063 213.046875 44.054688 C 213.433594 42.535156 213.535156 40.964844 213.363281 39.386719 C 212.582031 32.410156 206.414063 27.148438 199.015625 27.148438 C 198.507813 27.148438 197.996094 27.171875 197.484375 27.226563 C 191.410156 27.828125 186.371094 32.015625 184.9375 37.640625 C 184.554688 39.164063 184.449219 40.734375 184.621094 42.292969 C 185.417969 49.277344 191.585938 54.546875 198.972656 54.546875 "/>
<path style=" stroke:none;fill-rule:nonzero;fill:rgb(100%,100%,100%);fill-opacity:1;" d="M 84.46875 150.492188 C 84.085938 150.148438 83.660156 149.871094 83.164063 149.648438 C 82.527344 149.371094 81.839844 149.226563 81.125 149.226563 C 79.21875 149.226563 77.472656 150.269531 76.675781 151.886719 C 76.136719 152.972656 76.082031 154.269531 76.527344 155.445313 C 76.976563 156.628906 77.867188 157.566406 79.027344 158.085938 C 79.679688 158.375 80.371094 158.519531 81.085938 158.519531 L 81.089844 158.519531 C 82.996094 158.519531 84.75 157.464844 85.554688 155.828125 C 86.449219 154.03125 86.011719 151.886719 84.46875 150.492188 "/>
<path style=" stroke:none;fill-rule:nonzero;fill:rgb(100%,100%,100%);fill-opacity:1;" d="M 79.261719 162.128906 C 78.855469 162.046875 78.457031 162.007813 78.058594 162.007813 C 75.398438 162.007813 73.058594 163.808594 72.5 166.300781 C 72.207031 167.632813 72.523438 169.105469 73.367188 170.328125 C 74.214844 171.550781 75.503906 172.40625 76.914063 172.679688 C 78.4375 173.003906 79.929688 172.722656 81.210938 171.933594 C 82.492188 171.144531 83.355469 169.9375 83.648438 168.546875 C 84.082031 166.683594 83.472656 164.800781 82.023438 163.492188 C 81.246094 162.800781 80.289063 162.324219 79.261719 162.128906 "/>
<path style=" stroke:none;fill-rule:nonzero;fill:rgb(100%,100%,100%);fill-opacity:1;" d="M 78.535156 189.957031 C 82.171875 189.878906 85.089844 187.007813 85.035156 183.558594 C 85 181.855469 84.265625 180.273438 82.96875 179.105469 C 81.742188 177.996094 80.144531 177.386719 78.464844 177.386719 C 76.511719 177.410156 74.859375 178.085938 73.628906 179.289063 C 72.394531 180.503906 71.734375 182.097656 71.773438 183.765625 C 71.851563 187.066406 74.964844 189.957031 78.441406 189.957031 L 78.441406 191.027344 L 78.535156 189.957031 "/>
<path style=" stroke:none;fill-rule:nonzero;fill:rgb(100%,100%,100%);fill-opacity:1;" d="M 83.472656 209.535156 C 84.058594 209.535156 84.640625 209.46875 85.203125 209.339844 C 89.300781 208.34375 91.824219 204.328125 90.8125 200.390625 C 90.457031 199.082031 89.707031 197.875 88.652344 196.917969 C 87.191406 195.609375 85.292969 194.882813 83.308594 194.882813 C 82.675781 194.882813 82.039063 194.957031 81.421875 195.101563 C 79.425781 195.578125 77.738281 196.769531 76.667969 198.453125 C 75.609375 200.128906 75.296875 202.101563 75.792969 204 C 76.636719 207.152344 79.933594 209.535156 83.472656 209.535156 "/>
<path style=" stroke:none;fill-rule:nonzero;fill:rgb(100%,100%,100%);fill-opacity:1;" d="M 98.222656 229.890625 C 102.644531 227.734375 104.398438 222.570313 102.128906 218.386719 C 101.664063 217.519531 101.050781 216.738281 100.308594 216.070313 C 98.625 214.546875 96.410156 213.710938 94.078125 213.710938 C 92.664063 213.710938 91.253906 214.035156 89.996094 214.644531 C 87.835938 215.691406 86.234375 217.476563 85.488281 219.671875 C 84.753906 221.84375 84.953125 224.148438 86.050781 226.15625 C 87.566406 228.96875 90.777344 230.785156 94.234375 230.785156 C 95.648438 230.785156 96.992188 230.484375 98.222656 229.890625 "/>
<path style=" stroke:none;fill-rule:nonzero;fill:rgb(100%,100%,100%);fill-opacity:1;" d="M 120.128906 236.09375 C 119.875 235.804688 119.601563 235.53125 119.324219 235.273438 C 117.355469 233.503906 114.773438 232.523438 112.058594 232.523438 C 109.585938 232.523438 107.175781 233.359375 105.273438 234.867188 C 100.847656 238.429688 100.273438 244.75 104.003906 248.960938 C 106.042969 251.21875 109.011719 252.519531 112.132813 252.519531 C 114.59375 252.519531 116.976563 251.695313 118.847656 250.203125 C 123.292969 246.652344 123.867188 240.320313 120.128906 236.09375 "/>
<path style=" stroke:none;fill-rule:nonzero;fill:rgb(100%,100%,100%);fill-opacity:1;" d="M 100.863281 145.46875 C 100.472656 145.386719 100.074219 145.351563 99.679688 145.351563 C 98.585938 145.351563 97.511719 145.65625 96.574219 146.230469 C 95.300781 147.019531 94.433594 148.230469 94.128906 149.644531 C 93.820313 150.992188 94.125 152.464844 94.96875 153.6875 C 95.804688 154.90625 97.082031 155.757813 98.480469 156.027344 C 100 156.34375 101.496094 156.0625 102.777344 155.28125 C 104.050781 154.507813 104.929688 153.304688 105.257813 151.890625 C 105.65625 150.03125 105.035156 148.136719 103.589844 146.828125 C 102.828125 146.144531 101.886719 145.675781 100.863281 145.46875 "/>
<path style=" stroke:none;fill-rule:nonzero;fill:rgb(100%,100%,100%);fill-opacity:1;" d="M 100.152344 173.324219 C 103.796875 173.21875 106.710938 170.328125 106.621094 166.882813 C 106.585938 165.191406 105.855469 163.625 104.570313 162.464844 C 103.34375 161.359375 101.757813 160.75 100.097656 160.75 L 99.863281 160.753906 C 98.109375 160.773438 96.460938 161.441406 95.222656 162.644531 C 93.996094 163.863281 93.335938 165.464844 93.367188 167.152344 C 93.445313 170.496094 96.527344 173.324219 100.097656 173.324219 L 100.09375 174.394531 L 100.152344 173.324219 "/>
<path style=" stroke:none;fill-rule:nonzero;fill:rgb(100%,100%,100%);fill-opacity:1;" d="M 98.253906 181.824219 C 97.203125 183.507813 96.898438 185.472656 97.398438 187.355469 C 98.226563 190.515625 101.511719 192.894531 105.039063 192.894531 C 105.628906 192.894531 106.214844 192.828125 106.777344 192.691406 C 110.90625 191.710938 113.425781 187.71875 112.398438 183.800781 C 112.035156 182.449219 111.28125 181.226563 110.222656 180.273438 C 108.777344 178.96875 106.878906 178.246094 104.886719 178.246094 C 104.253906 178.246094 103.621094 178.320313 103 178.464844 C 101.015625 178.945313 99.324219 180.140625 98.253906 181.824219 "/>
<path style=" stroke:none;fill-rule:nonzero;fill:rgb(100%,100%,100%);fill-opacity:1;" d="M 107.097656 203.007813 C 106.363281 205.183594 106.558594 207.488281 107.652344 209.503906 C 109.15625 212.320313 112.367188 214.136719 115.832031 214.136719 L 115.835938 214.136719 C 117.222656 214.136719 118.589844 213.832031 119.789063 213.253906 C 124.214844 211.109375 125.976563 205.941406 123.71875 201.738281 C 123.253906 200.867188 122.640625 200.085938 121.894531 199.40625 C 120.226563 197.90625 118.023438 197.074219 115.695313 197.074219 C 114.273438 197.074219 112.855469 197.398438 111.589844 198.007813 C 109.433594 199.046875 107.839844 200.820313 107.097656 203.007813 "/>
<path style=" stroke:none;fill-rule:nonzero;fill:rgb(100%,100%,100%);fill-opacity:1;" d="M 141.726563 219.476563 C 141.457031 219.167969 141.179688 218.890625 140.886719 218.621094 C 138.9375 216.867188 136.367188 215.894531 133.660156 215.894531 C 131.1875 215.894531 128.773438 216.726563 126.863281 218.234375 C 122.445313 221.796875 121.871094 228.125 125.589844 232.335938 C 127.589844 234.613281 130.523438 235.914063 133.636719 235.914063 C 136.113281 235.914063 138.53125 235.082031 140.445313 233.570313 C 142.605469 231.847656 143.929688 229.429688 144.171875 226.765625 C 144.414063 224.105469 143.542969 221.519531 141.726563 219.476563 "/>
<path style=" stroke:none;fill-rule:nonzero;fill:rgb(100%,100%,100%);fill-opacity:1;" d="M 168.453125 236.195313 C 168.101563 235.882813 167.71875 235.574219 167.3125 235.285156 C 165.140625 233.742188 162.578125 232.925781 159.902344 232.925781 C 159.316406 232.925781 158.722656 232.964844 158.132813 233.046875 C 154.890625 233.484375 152.023438 235.097656 150.054688 237.589844 C 148.085938 240.070313 147.25 243.136719 147.699219 246.21875 C 148.152344 249.324219 149.855469 252.074219 152.496094 253.960938 C 154.648438 255.496094 157.207031 256.308594 159.898438 256.308594 C 163.816406 256.308594 167.410156 254.613281 169.761719 251.664063 C 173.527344 246.917969 172.964844 240.269531 168.453125 236.195313 "/>
<path style=" stroke:none;fill-rule:nonzero;fill:rgb(100%,100%,100%);fill-opacity:1;" d="M 120.210938 148.8125 C 123.867188 148.746094 126.785156 145.882813 126.71875 142.421875 C 126.699219 140.714844 125.976563 139.132813 124.679688 137.96875 C 123.425781 136.835938 121.765625 136.214844 120.007813 136.214844 C 116.316406 136.296875 113.410156 139.171875 113.480469 142.625 C 113.539063 145.921875 116.617188 148.8125 120.0625 148.8125 L 120.0625 149.878906 L 120.210938 148.8125 "/>
<path style=" stroke:none;fill-rule:nonzero;fill:rgb(100%,100%,100%);fill-opacity:1;" d="M 117.507813 162.851563 C 118.332031 166.015625 121.617188 168.394531 125.152344 168.394531 C 125.738281 168.394531 126.316406 168.332031 126.875 168.203125 C 128.886719 167.730469 130.589844 166.539063 131.660156 164.851563 C 132.71875 163.179688 133.027344 161.210938 132.53125 159.308594 C 132.160156 157.957031 131.40625 156.730469 130.34375 155.769531 C 128.898438 154.460938 127.003906 153.742188 125.019531 153.742188 C 124.382813 153.742188 123.746094 153.816406 123.121094 153.964844 C 118.992188 154.972656 116.46875 158.960938 117.507813 162.851563 "/>
<path style=" stroke:none;fill-rule:nonzero;fill:rgb(100%,100%,100%);fill-opacity:1;" d="M 127.765625 185.03125 C 129.273438 187.828125 132.480469 189.636719 135.933594 189.636719 C 137.324219 189.636719 138.691406 189.332031 139.890625 188.75 C 144.320313 186.613281 146.089844 181.449219 143.835938 177.234375 C 143.367188 176.367188 142.753906 175.589844 142.015625 174.925781 C 140.335938 173.40625 138.121094 172.570313 135.78125 172.570313 C 134.363281 172.570313 132.945313 172.894531 131.679688 173.5 C 127.253906 175.652344 125.496094 180.824219 127.765625 185.03125 "/>
<path style=" stroke:none;fill-rule:nonzero;fill:rgb(100%,100%,100%);fill-opacity:1;" d="M 145.691406 207.847656 C 147.699219 210.109375 150.628906 211.410156 153.734375 211.410156 C 156.222656 211.410156 158.652344 210.570313 160.570313 209.042969 C 165 205.5 165.574219 199.183594 161.851563 194.964844 C 161.597656 194.683594 161.328125 194.410156 161.046875 194.160156 C 159.066406 192.371094 156.488281 191.390625 153.773438 191.390625 C 151.300781 191.390625 148.886719 192.226563 146.984375 193.742188 C 142.539063 197.304688 141.957031 203.632813 145.691406 207.847656 "/>
<path style=" stroke:none;fill-rule:nonzero;fill:rgb(100%,100%,100%);fill-opacity:1;" d="M 189.882813 227.15625 C 193.640625 222.402344 193.058594 215.738281 188.53125 211.652344 C 188.183594 211.34375 187.828125 211.050781 187.4375 210.777344 C 185.277344 209.230469 182.722656 208.414063 180.046875 208.414063 C 179.464844 208.414063 178.878906 208.453125 178.289063 208.53125 C 175.015625 208.96875 172.128906 210.585938 170.160156 213.082031 C 168.199219 215.570313 167.382813 218.675781 167.863281 221.816406 C 168.34375 224.921875 170.027344 227.632813 172.609375 229.453125 C 174.777344 231.011719 177.335938 231.835938 180.011719 231.835938 C 180.582031 231.835938 181.148438 231.796875 181.722656 231.722656 C 184.992188 231.296875 187.890625 229.675781 189.882813 227.15625 "/>
<path style=" stroke:none;fill-rule:nonzero;fill:rgb(100%,100%,100%);fill-opacity:1;" d="M 225.304688 225.0625 C 224.109375 223.984375 222.734375 223.113281 221.210938 222.464844 C 219.363281 221.691406 217.398438 221.296875 215.386719 221.296875 C 209.65625 221.296875 204.460938 224.492188 202.148438 229.4375 C 199.675781 234.734375 200.980469 240.964844 205.390625 244.933594 C 206.578125 246.003906 207.960938 246.875 209.5 247.53125 C 211.347656 248.308594 213.308594 248.707031 215.320313 248.707031 C 221.039063 248.707031 226.226563 245.511719 228.542969 240.566406 C 231.027344 235.277344 229.726563 229.046875 225.304688 225.0625 "/>
</g>
</svg>
