<svg xmlns="http://www.w3.org/2000/svg" width="375" viewBox="0 0 375 375" height="375" version="1.0"><defs><clipPath id="a"><path d="M 37.5 37.5 L 337.5 37.5 L 337.5 337.5 L 37.5 337.5 Z M 37.5 37.5"/></clipPath></defs><path fill="#FFF" d="M-37.5 -37.5H412.5V412.5H-37.5z"/><path fill="#FFF" d="M-37.5 -37.5H412.5V412.5H-37.5z"/><path fill="#FFF" d="M-37.5 -37.5H412.5V412.5H-37.5z"/><g clip-path="url(#a)"><path fill="#9FD745" d="M 337.433594 187.445312 C 337.433594 270.285156 270.285156 337.433594 187.445312 337.433594 C 104.605469 337.433594 37.457031 270.285156 37.457031 187.445312 C 37.453125 104.605469 104.605469 37.457031 187.445312 37.457031 C 270.285156 37.453125 337.433594 104.605469 337.433594 187.445312"/></g><path fill="#FFF" d="M 209.765625 301.753906 L 165.121094 301.753906 L 165.121094 234.289062 L 209.765625 234.289062 L 209.765625 301.753906"/><path stroke-linecap="round" transform="matrix(.11223 0 0 -.11223 -51.164 426.052)" fill="none" stroke-linejoin="round" d="M 2324.886845 1107.49804 L 1927.104048 1107.49804 L 1927.104048 1708.609833 L 2324.886845 1708.609833 Z M 2324.886845 1107.49804" stroke="#040505" stroke-width="50" stroke-miterlimit="10"/><path fill="#9FD745" d="M 153.707031 160.777344 L 153.707031 116.128906 L 221.179688 116.128906 L 221.179688 160.777344 L 153.707031 160.777344"/><path stroke-linecap="round" transform="matrix(.11223 0 0 -.11223 -51.164 426.052)" fill="none" stroke-linejoin="round" d="M 1825.404745 2363.599285 L 1825.404745 2761.416887 L 2426.586148 2761.416887 L 2426.586148 2363.599285 Z M 1825.404745 2363.599285" stroke="#040505" stroke-width="50" stroke-miterlimit="10"/><path stroke-linecap="round" transform="matrix(.11223 0 0 -.11223 -51.164 426.052)" fill="none" stroke-linejoin="round" d="M 1401.796869 2232.49002 L 1401.796869 2950.510765" stroke="#040505" stroke-width="50" stroke-miterlimit="10"/><path fill="#FFF" d="M 121.945312 88.925781 C 121.945312 97.644531 114.886719 104.707031 106.164062 104.707031 C 97.445312 104.707031 90.375 97.644531 90.375 88.925781 C 90.375 80.203125 97.445312 73.132812 106.164062 73.132812 C 114.886719 73.132812 121.945312 80.203125 121.945312 88.925781"/><path stroke-linecap="round" transform="matrix(.11223 0 0 -.11223 -51.164 426.052)" fill="none" stroke-linejoin="round" d="M 1542.407815 3003.796744 C 1542.407815 2926.112677 1479.515741 2863.185799 1401.796869 2863.185799 C 1324.112802 2863.185799 1261.116314 2926.112677 1261.116314 3003.796744 C 1261.116314 3081.515616 1324.112802 3144.512104 1401.796869 3144.512104 C 1479.515741 3144.512104 1542.407815 3081.515616 1542.407815 3003.796744 Z M 1542.407815 3003.796744" stroke="#040505" stroke-width="50" stroke-miterlimit="10"/><path stroke-linecap="round" transform="matrix(.11223 0 0 -.11223 -51.164 426.052)" fill="none" stroke-linejoin="round" d="M 2850.194024 2232.49002 L 2850.194024 2950.510765" stroke="#040505" stroke-width="50" stroke-miterlimit="10"/><path fill="#FFF" d="M 284.515625 88.925781 C 284.515625 97.644531 277.445312 104.707031 268.722656 104.707031 C 260.003906 104.707031 252.933594 97.644531 252.933594 88.925781 C 252.933594 80.203125 260.003906 73.132812 268.722656 73.132812 C 277.445312 73.132812 284.515625 80.203125 284.515625 88.925781"/><path stroke-linecap="round" transform="matrix(.11223 0 0 -.11223 -51.164 426.052)" fill="none" stroke-linejoin="round" d="M 2990.909384 3003.796744 C 2990.909384 2926.112677 2927.912895 2863.185799 2850.194024 2863.185799 C 2772.509957 2863.185799 2709.513469 2926.112677 2709.513469 3003.796744 C 2709.513469 3081.515616 2772.509957 3144.512104 2850.194024 3144.512104 C 2927.912895 3144.512104 2990.909384 3081.515616 2990.909384 3003.796744 Z M 2990.909384 3003.796744" stroke="#040505" stroke-width="50" stroke-miterlimit="10"/><path fill="#FFF" d="M 277.882812 203.234375 C 277.882812 239.015625 237.398438 268.015625 187.445312 268.015625 C 137.488281 268.015625 97.007812 239.015625 97.007812 203.234375 C 97.007812 167.457031 137.488281 138.453125 187.445312 138.453125 C 237.398438 138.453125 277.882812 167.457031 277.882812 203.234375"/><path stroke-linecap="round" transform="matrix(.11223 0 0 -.11223 -51.164 426.052)" fill="none" stroke-linejoin="round" d="M 2931.811021 1985.307115 C 2931.811021 1666.496159 2571.095218 1408.106144 2126.012849 1408.106144 C 1680.895674 1408.106144 1320.214677 1666.496159 1320.214677 1985.307115 C 1320.214677 2304.083266 1680.895674 2562.508086 2126.012849 2562.508086 C 2571.095218 2562.508086 2931.811021 2304.083266 2931.811021 1985.307115 Z M 2931.811021 1985.307115" stroke="#040505" stroke-width="50" stroke-miterlimit="10"/><path fill="#FFF" d="M 164.964844 191.28125 C 164.964844 202.941406 155.503906 212.40625 143.828125 212.40625 C 132.167969 212.40625 122.695312 202.941406 122.695312 191.28125 C 122.695312 179.609375 132.167969 170.148438 143.828125 170.148438 C 155.503906 170.148438 164.964844 179.609375 164.964844 191.28125"/><path stroke-linecap="round" transform="matrix(.11223 0 0 -.11223 -51.164 426.052)" fill="none" stroke-linejoin="round" d="M 1925.711861 2091.809465 C 1925.711861 1987.882662 1841.414903 1903.585704 1737.383686 1903.585704 C 1633.491687 1903.585704 1549.090315 1987.917466 1549.090315 2091.809465 C 1549.090315 2195.805877 1633.491687 2280.102835 1737.383686 2280.102835 C 1841.414903 2280.102835 1925.711861 2195.805877 1925.711861 2091.809465 Z M 1925.711861 2091.809465" stroke="#040505" stroke-width="50" stroke-miterlimit="10"/><path fill="#9FD745" d="M 155.929688 191.28125 C 155.929688 197.960938 150.519531 203.382812 143.828125 203.382812 C 137.152344 203.382812 131.730469 197.960938 131.730469 191.28125 C 131.730469 184.59375 137.152344 179.171875 143.828125 179.171875 C 150.519531 179.171875 155.929688 184.59375 155.929688 191.28125"/><path stroke-linecap="round" transform="matrix(.11223 0 0 -.11223 -51.164 426.052)" fill="none" stroke-linejoin="round" d="M 1845.208614 2091.809465 C 1845.208614 2032.293446 1797.004119 1983.984537 1737.383686 1983.984537 C 1677.902471 1983.984537 1629.593562 2032.293446 1629.593562 2091.809465 C 1629.593562 2151.395093 1677.902471 2199.704002 1737.383686 2199.704002 C 1797.004119 2199.704002 1845.208614 2151.395093 1845.208614 2091.809465 Z M 1845.208614 2091.809465" stroke="#040505" stroke-width="30" stroke-miterlimit="10"/><path fill="#FFF" d="M 209.925781 191.28125 C 209.925781 202.941406 219.386719 212.40625 231.046875 212.40625 C 242.71875 212.40625 252.179688 202.941406 252.179688 191.28125 C 252.179688 179.609375 242.71875 170.148438 231.046875 170.148438 C 219.386719 170.148438 209.925781 179.609375 209.925781 191.28125"/><path stroke-linecap="round" transform="matrix(.11223 0 0 -.11223 -51.164 426.052)" fill="none" stroke-linejoin="round" d="M 2326.313837 2091.809465 C 2326.313837 1987.882662 2410.610795 1903.585704 2514.502793 1903.585704 C 2618.499206 1903.585704 2702.796164 1987.917466 2702.796164 2091.809465 C 2702.796164 2195.805877 2618.499206 2280.102835 2514.502793 2280.102835 C 2410.610795 2280.102835 2326.313837 2195.805877 2326.313837 2091.809465 Z M 2326.313837 2091.809465" stroke="#040505" stroke-width="50" stroke-miterlimit="10"/><path fill="#9FD745" d="M 218.949219 191.28125 C 218.949219 197.960938 224.367188 203.382812 231.046875 203.382812 C 237.734375 203.382812 243.15625 197.960938 243.15625 191.28125 C 243.15625 184.59375 237.734375 179.171875 231.046875 179.171875 C 224.367188 179.171875 218.949219 184.59375 218.949219 191.28125"/><path stroke-linecap="round" transform="matrix(.11223 0 0 -.11223 -51.164 426.052)" fill="none" stroke-linejoin="round" d="M 2406.71267 2091.809465 C 2406.71267 2032.293446 2454.986774 1983.984537 2514.502793 1983.984537 C 2574.088422 1983.984537 2622.397331 2032.293446 2622.397331 2091.809465 C 2622.397331 2151.395093 2574.088422 2199.704002 2514.502793 2199.704002 C 2454.986774 2199.704002 2406.71267 2151.395093 2406.71267 2091.809465 Z M 2406.71267 2091.809465" stroke="#040505" stroke-width="30" stroke-miterlimit="10"/><path stroke-linecap="round" transform="matrix(.11223 0 0 -.11223 -51.164 426.052)" fill="none" stroke-linejoin="round" d="M 2268.886099 1702.79745 C 2268.886099 1623.895219 2204.91508 1559.889395 2126.012849 1559.889395 C 2047.110618 1559.889395 1983.104794 1623.895219 1983.104794 1702.79745" stroke="#040505" stroke-width="50" stroke-miterlimit="10"/></svg>